TITLE ""
FILE "1Q_t_2030-2038.mp3" MP3
  TRACK 01 AUDIO
    TITLE "1Q_t_2030-2038_01"
    INDEX 01 00:00:00
  TRACK 02 AUDIO
    TITLE "1Q_t_2030-2038_02"
    INDEX 01 00:01:25
  TRACK 03 AUDIO
    TITLE "1Q_t_2030-2038_03"
    INDEX 01 00:01:35
  TRACK 04 AUDIO
    TITLE "1Q_t_2030-2038_04"
    INDEX 01 00:04:41
  TRACK 05 AUDIO
    TITLE "1Q_t_2030-2038_05"
    INDEX 01 00:04:51
  TRACK 06 AUDIO
    TITLE "1Q_t_2030-2038_06"
    INDEX 01 00:08:73
  TRACK 07 AUDIO
    TITLE "1Q_t_2030-2038_07"
    INDEX 01 00:09:45
  TRACK 08 AUDIO
    TITLE "1Q_t_2030-2038_08"
    INDEX 01 00:10:54
  TRACK 09 AUDIO
    TITLE "1Q_t_2030-2038_09"
    INDEX 01 00:10:64
  TRACK 10 AUDIO
    TITLE "1Q_t_2030-2038_10"
    INDEX 01 00:12:33
  TRACK 11 AUDIO
    TITLE "1Q_t_2030-2038_11"
    INDEX 01 00:12:43
  TRACK 12 AUDIO
    TITLE "1Q_t_2030-2038_12"
    INDEX 01 00:17:24
  TRACK 13 AUDIO
    TITLE "1Q_t_2030-2038_13"
    INDEX 01 00:17:71
  TRACK 14 AUDIO
    TITLE "1Q_t_2030-2038_14"
    INDEX 01 00:19:27
  TRACK 15 AUDIO
    TITLE "1Q_t_2030-2038_15"
    INDEX 01 00:19:37
  TRACK 16 AUDIO
    TITLE "1Q_t_2030-2038_16"
    INDEX 01 00:21:09
  TRACK 17 AUDIO
    TITLE "1Q_t_2030-2038_17"
    INDEX 01 00:21:18
  TRACK 18 AUDIO
    TITLE "1Q_t_2030-2038_18"
    INDEX 01 00:26:21
  TRACK 19 AUDIO
    TITLE "1Q_t_2030-2038_19"
    INDEX 01 00:26:66
  TRACK 20 AUDIO
    TITLE "1Q_t_2030-2038_20"
    INDEX 01 00:27:74
  TRACK 21 AUDIO
    TITLE "1Q_t_2030-2038_21"
    INDEX 01 00:28:44
  TRACK 22 AUDIO
    TITLE "1Q_t_2030-2038_22"
    INDEX 01 00:29:69
  TRACK 23 AUDIO
    TITLE "1Q_t_2030-2038_23"
    INDEX 01 00:30:07
  TRACK 24 AUDIO
    TITLE "1Q_t_2030-2038_24"
    INDEX 01 00:31:54
  TRACK 25 AUDIO
    TITLE "1Q_t_2030-2038_25"
    INDEX 01 00:31:64
  TRACK 26 AUDIO
    TITLE "1Q_t_2030-2038_26"
    INDEX 01 00:36:37
  TRACK 27 AUDIO
    TITLE "1Q_t_2030-2038_27"
    INDEX 01 00:37:11
  TRACK 28 AUDIO
    TITLE "1Q_t_2030-2038_28"
    INDEX 01 00:38:21
  TRACK 29 AUDIO
    TITLE "1Q_t_2030-2038_29"
    INDEX 01 00:38:30
  TRACK 30 AUDIO
    TITLE "1Q_t_2030-2038_30"
    INDEX 01 00:40:59
  TRACK 31 AUDIO
    TITLE "1Q_t_2030-2038_31"
    INDEX 01 00:40:69
  TRACK 32 AUDIO
    TITLE "1Q_t_2030-2038_32"
    INDEX 01 00:45:44
  TRACK 33 AUDIO
    TITLE "1Q_t_2030-2038_33"
    INDEX 01 00:46:16
  TRACK 34 AUDIO
    TITLE "1Q_t_2030-2038_34"
    INDEX 01 00:47:31
  TRACK 35 AUDIO
    TITLE "1Q_t_2030-2038_35"
    INDEX 01 00:47:41
  TRACK 36 AUDIO
    TITLE "1Q_t_2030-2038_36"
    INDEX 01 00:48:43
  TRACK 37 AUDIO
    TITLE "1Q_t_2030-2038_37"
    INDEX 01 00:48:52
  TRACK 38 AUDIO
    TITLE "1Q_t_2030-2038_38"
    INDEX 01 00:54:14
  TRACK 39 AUDIO
    TITLE "1Q_t_2030-2038_39"
    INDEX 01 00:54:63
  TRACK 40 AUDIO
    TITLE "1Q_t_2030-2038_40"
    INDEX 01 00:56:07
  TRACK 41 AUDIO
    TITLE "1Q_t_2030-2038_41"
    INDEX 01 00:56:25
  TRACK 42 AUDIO
    TITLE "1Q_t_2030-2038_42"
    INDEX 01 00:58:31
  TRACK 43 AUDIO
    TITLE "1Q_t_2030-2038_43"
    INDEX 01 00:58:41
  TRACK 44 AUDIO
    TITLE "1Q_t_2030-2038_44"
    INDEX 01 01:03:30
  TRACK 45 AUDIO
    TITLE "1Q_t_2030-2038_45"
    INDEX 01 01:04:01
  TRACK 46 AUDIO
    TITLE "1Q_t_2030-2038_46"
    INDEX 01 01:05:12
  TRACK 47 AUDIO
    TITLE "1Q_t_2030-2038_47"
    INDEX 01 01:05:22
  TRACK 48 AUDIO
    TITLE "1Q_t_2030-2038_48"
    INDEX 01 01:06:68
  TRACK 49 AUDIO
    TITLE "1Q_t_2030-2038_49"
    INDEX 01 01:07:03
  TRACK 50 AUDIO
    TITLE "1Q_t_2030-2038_50"
    INDEX 01 01:11:03
  TRACK 51 AUDIO
    TITLE "1Q_t_2030-2038_51"
    INDEX 01 01:11:53
  TRACK 52 AUDIO
    TITLE "1Q_t_2030-2038_52"
    INDEX 01 01:12:67
  TRACK 53 AUDIO
    TITLE "1Q_t_2030-2038_53"
    INDEX 01 01:13:01
  TRACK 54 AUDIO
    TITLE "1Q_t_2030-2038_54"
    INDEX 01 01:14:22
  TRACK 55 AUDIO
    TITLE "1Q_t_2030-2038_55"
    INDEX 01 01:14:30
  TRACK 56 AUDIO
    TITLE "1Q_t_2030-2038_56"
    INDEX 01 01:18:61
